<svg height="476pt" viewBox="0 -15 476.18286 476" width="476pt" xmlns="http://www.w3.org/2000/svg"><path d="m225.320312 337.242188c0 17.367187-14.078124 31.445312-31.445312 31.445312s-31.445312-14.078125-31.445312-31.445312c0-17.371094 14.078124-31.449219 31.445312-31.449219s31.445312 14.078125 31.445312 31.449219zm0 0"/><path d="m218.484375 367.207031c-1.890625-.046875-3.691406.820313-4.835937 2.324219-4.65625 6.238281-11.984376 9.914062-19.769532 9.914062-7.785156.003907-15.113281-3.664062-19.777344-9.898437-1.140624-1.507813-2.9375-2.378906-4.832031-2.339844-15.9375 0-29.097656 12.730469-29.097656 28.660157v44.957031c0 3.3125 2.890625 5.382812 6.199219 5.382812h95c3.3125 0 5.792968-2.070312 5.792968-5.382812v-44.957031c.027344-7.613282-2.984374-14.921876-8.367187-20.304688-5.386719-5.382812-12.699219-8.390625-20.308594-8.355469zm0 0"/><path d="m340.003906 337.242188c0 17.367187-14.082031 31.445312-31.449218 31.445312-17.367188 0-31.445313-14.078125-31.445313-31.445312 0-17.371094 14.078125-31.449219 31.445313-31.449219 17.367187 0 31.449218 14.078125 31.449218 31.449219zm0 0"/><path d="m255.171875 395.867188v44.957031c0 3.3125 2.566406 5.382812 5.882813 5.382812h95c3.3125 0 6.113281-2.070312 6.113281-5.382812v-44.957031c-.09375-15.921876-13.074219-28.757813-28.996094-28.660157-1.894531-.046875-3.691406.820313-4.835937 2.324219-4.660157 6.238281-11.988282 9.914062-19.773438 9.914062-7.78125.003907-15.113281-3.664062-19.777344-9.898437-1.140625-1.511719-2.941406-2.382813-4.835937-2.339844-7.621094-.042969-14.949219 2.960938-20.351563 8.339844s-8.4375 12.695313-8.425781 20.320313zm0 0"/><path d="m454.679688 337.242188c0 17.367187-14.078126 31.445312-31.445313 31.445312s-31.449219-14.078125-31.449219-31.445312c0-17.371094 14.082032-31.449219 31.449219-31.449219s31.445313 14.078125 31.445313 31.449219zm0 0"/><path d="m447.84375 367.207031c-1.890625-.046875-3.691406.820313-4.835938 2.324219-1.472656 1.984375-3.242187 3.734375-5.242187 5.183594-10.898437 8.039062-26.25 5.734375-34.304687-5.152344-1.144532-1.515625-2.941407-2.390625-4.835938-2.355469-15.933594 0-29.453125 12.726563-29.453125 28.660157v44.957031c0 3.3125 3.246094 5.382812 6.558594 5.382812h95c1.46875.121094 2.914062-.40625 3.957031-1.441406 1.046875-1.035156 1.585938-2.476563 1.484375-3.941406v-44.957031c.109375-7.578126-2.828125-14.878907-8.15625-20.269532-5.324219-5.386718-12.59375-8.410156-20.167969-8.390625zm0 0"/><path d="m73.671875 66.21875c14.660156-.023438 26.523437-11.929688 26.5-26.589844v-13.039062c0-14.632813-11.867187-26.5000002-26.5-26.5000002-14.636719 0-26.5 11.8671872-26.5 26.5000002v13.039062c-.027344 14.660156 11.835937 26.566406 26.5 26.589844zm0 0"/><path d="m107.902344 394.515625 5.1875-173.308594h-76.21875l5.234375 173.347657c.265625 7.34375 6.34375 13.132812 13.691406 13.042968s13.285156-6.023437 13.375-13.371094v-147.230468c0-3.3125 2.683594-6 6-6 3.3125 0 6 2.6875 6 6v147.230468c-.082031 7.382813 5.839844 13.429688 13.21875 13.511719 7.382813.078125 13.433594-5.839843 13.511719-13.222656zm0 0"/><path d="m.171875 123.761719v100.175781c-.015625 3.074219 1.246094 6.011719 3.480469 8.117188 2.269531 2.152343 5.316406 3.289062 8.441406 3.152343h.160156c3.152344.058594 6.195313-1.15625 8.4375-3.375 2.246094-2.214843 3.5-5.246093 3.480469-8.398437v-66.550782c0-3.3125 2.683594-6 6-6 3.3125 0 6 2.6875 6 6v40.460938c0 .300781.042969.402344.050781.714844l.289063 11.148437h76.933593l-.273437-7.269531v-45.054688c0-3.3125 2.683594-6 6-6 3.3125 0 6 2.6875 6 6v40.441407c0 .417969.113281.847656.097656 1.289062l-.097656 3.484375v21.828125c0 6.628907 5.371094 12 12 12 6.625 0 12-5.371093 12-12v-100.164062c0-.199219.253906-.398438.273437-.605469 1.628907-15.273438-9.40625-28.988281-24.675781-30.664062-.921875-.144532-1.855469-.238282-2.789062-.285157h-14.789063l-28.199218 26.601563c-.117188.109375-.25.277344-.375.375-.15625.128906-.3125.285156-.480469.394531s-.34375.210937-.523438.300781c-.171875.089844-.339843.191406-.519531.261719-.1875.066406-.378906.128906-.570312.179687-.179688.050782-.355469.109376-.539063.140626-.195313.035156-.394531.054687-.589844.066406-.1875.015625-.371093.039062-.554687.035156-.1875 0-.390625-.023438-.585938-.046875-.195312-.019531-.375-.03125-.558594-.070313-.1875-.039062-.378906-.101562-.566406-.160156s-.363281-.105468-.539062-.179687c-.183594-.082031-.363282-.175781-.539063-.277344-.167969-.089844-.335937-.179687-.5-.285156-.167969-.125-.332031-.261719-.488281-.402344-.117188-.097656-.246094-.300781-.359375-.40625l-27.121094-26.527344h-15.773437c-15.398438.089844-27.8281252 12.605469-27.808594 28 0 .933594.0195312 1.96875.113281 2.902344.019531.199219.058594.449219.058594.652344zm0 0"/><path d="m314.542969 214.15625c.253906-.289062.539062-.546875.84375-.78125-.121094.09375-.242188.1875-.359375.289062l-58.304688 51.945313c-1.617187 1.417969-2.347656 3.597656-1.914062 5.707031.429687 2.109375 1.957031 3.824219 4.003906 4.496094s4.292969.199219 5.890625-1.246094l54.316406-48.390625-3.992187-3.554687c-2.46875-2.203125-2.6875-5.992188-.484375-8.464844zm0 0"/><path d="m377.324219 276.089844c2.492187.003906 4.722656-1.535156 5.609375-3.863282.886718-2.324218.242187-4.957031-1.617188-6.613281l-58.304687-51.949219c-.011719-.007812-.027344-.015624-.039063-.027343.1875.164062.363282.335937.527344.519531 2.203125 2.472656 1.984375 6.265625-.488281 8.46875l-3.992188 3.554688 54.316407 48.390624c1.097656.980469 2.519531 1.523438 3.988281 1.519532zm0 0"/><path d="m436.171875 193.40625v-144.199219h-235v144.199219c0 8.382812 6.988281 14.800781 15.371094 14.800781h204.957031c3.933594.066407 7.722656-1.476562 10.492188-4.269531 2.769531-2.792969 4.277343-6.597656 4.179687-10.53125zm-201.832031-101.199219h129c3.3125 0 6 2.6875 6 6s-2.6875 6-6 6h-129c-3.3125 0-6-2.6875-6-6s2.6875-6 6-6zm170 67h-170c-3.3125 0-6-2.6875-6-6s2.6875-6 6-6h170c3.3125 0 6 2.6875 6 6s-2.6875 6-6 6zm0-27h-170c-3.3125 0-6-2.6875-6-6s2.6875-6 6-6h170c3.3125 0 6 2.6875 6 6s-2.6875 6-6 6zm0 0"/><path d="m183.171875 1.207031h272v36h-272zm0 0"/></svg>