<svg height="512" viewBox="0 0 64 64" width="512" xmlns="http://www.w3.org/2000/svg"><g id="Edit-Edit_Tools-Hand-Setting-Gear" data-name="Edit-Edit Tools-Hand-Setting-Gear"><circle cx="47" cy="5" r="2"/><circle cx="45" cy="20" r="2"/><circle cx="19" cy="20" r="2"/><circle cx="17" cy="5" r="2"/><path d="m8 51v1h10v-6.732l-6.866-11.892a2 2 0 0 0 -3.464 2l7 12.124-1.732 1-7-12.124a4.008 4.008 0 0 1 1.462-5.465 3.941 3.941 0 0 1 .6-.269v-8.642a2 2 0 0 0 -4 0v23.649l3.781 4.726a1 1 0 0 1 .219.625z"/><path d="m20 54h-14v6h14zm-2 4h-2v-2h2z"/><path d="m44 60h14v-6h-14zm2-4h2v2h-2z"/><path d="m55.6 32.644a2 2 0 0 0 -2.732.732l-6.868 11.892v6.732h10v-1a1 1 0 0 1 .219-.625l3.781-4.726v-23.649a2 2 0 0 0 -4 0v8.642a3.887 3.887 0 0 1 .6.269 4.008 4.008 0 0 1 1.464 5.465l-7 12.124-1.732-1 7-12.124a2 2 0 0 0 -.732-2.732z"/><path d="m26.31 42.79a1 1 0 0 1 1.115-.058 8.716 8.716 0 0 0 2.351.979 1 1 0 0 1 .744.828l.348 2.461h2.264l.348-2.461a1 1 0 0 1 .744-.828 8.716 8.716 0 0 0 2.351-.979 1 1 0 0 1 1.115.058l2 1.5 1.6-1.6-1.5-2a1 1 0 0 1 -.058-1.115 8.773 8.773 0 0 0 .979-2.352 1 1 0 0 1 .829-.744l2.46-.347v-2.264l-2.46-.347a1 1 0 0 1 -.829-.744 8.773 8.773 0 0 0 -.979-2.352 1 1 0 0 1 .058-1.115l1.5-2-1.6-1.6-2 1.5a1 1 0 0 1 -1.115.058 8.624 8.624 0 0 0 -1.575-.72v3.265a6 6 0 1 1 -6 0v-3.265a8.624 8.624 0 0 0 -1.575.72 1 1 0 0 1 -1.115-.058l-2-1.5-1.6 1.6 1.5 2a1 1 0 0 1 .058 1.115 8.773 8.773 0 0 0 -.979 2.352 1 1 0 0 1 -.829.744l-2.46.347v2.264l2.46.347a1 1 0 0 1 .829.744 8.773 8.773 0 0 0 .979 2.352 1 1 0 0 1 -.058 1.115l-1.5 2 1.6 1.6z"/><path d="m29.154 17.072 1.464 2.928h2.764l1.464-2.928-1.846-2.769v3.697h-2v-3.697z"/><path d="m31 26h2v9h-2z"/><path d="m29 36v-3.643a4 4 0 1 0 6 0v3.643a1 1 0 0 1 -1 1h-4a1 1 0 0 1 -1-1z"/><path d="m35 23a1 1 0 0 0 -1-1h-4a1 1 0 0 0 0 2h4a1 1 0 0 0 1-1z"/><path d="m28.33 6.57a12.012 12.012 0 0 0 -8.19 9.6 3.932 3.932 0 0 0 -1.14-.17 3.572 3.572 0 0 0 -.87.1 14.052 14.052 0 0 1 6.7-10.1h-3.96a3.657 3.657 0 0 0 .13-1 3.657 3.657 0 0 0 -.13-1h7.26a3.657 3.657 0 0 0 -.13 1 3.906 3.906 0 0 0 .33 1.57z"/><path d="m45.87 16.1a3.572 3.572 0 0 0 -.87-.1 3.932 3.932 0 0 0 -1.14.17 12.012 12.012 0 0 0 -8.19-9.6 3.906 3.906 0 0 0 .33-1.57 3.657 3.657 0 0 0 -.13-1h7.26a3.657 3.657 0 0 0 -.13 1 3.657 3.657 0 0 0 .13 1h-3.96a14.052 14.052 0 0 1 6.7 10.1z"/><circle cx="32" cy="5" r="2"/></g></svg>